<svg xmlns="http://www.w3.org/2000/svg" viewBox="-56 -1 112 114">
  <rect x="-52" y="3" width="104" height="104" rx="16" fill="#a07840"/>
  <rect x="-46" y="9" width="92" height="92" rx="12" fill="none" stroke="#f0d9b5" stroke-width="1.5" stroke-dasharray="3,3"/>
  <rect x="-42" y="13" width="84" height="84" rx="10" fill="#fdf6ec"/>
  <circle cx="-52" cy="28" r="3" fill="#a07840"/><circle cx="-52" cy="55" r="3" fill="#a07840"/><circle cx="-52" cy="82" r="3" fill="#a07840"/>
  <circle cx="52" cy="28" r="3" fill="#a07840"/><circle cx="52" cy="55" r="3" fill="#a07840"/><circle cx="52" cy="82" r="3" fill="#a07840"/>
  <circle cx="-28" cy="3" r="3" fill="#a07840"/><circle cx="0" cy="3" r="3" fill="#a07840"/><circle cx="28" cy="3" r="3" fill="#a07840"/>
  <circle cx="-28" cy="107" r="3" fill="#a07840"/><circle cx="0" cy="107" r="3" fill="#a07840"/><circle cx="28" cy="107" r="3" fill="#a07840"/>
  <line x1="-34" y1="90" x2="34" y2="90" stroke="#a07840" stroke-width="2.5"/>
  <rect x="-30" y="86" width="60" height="4" rx="1" fill="#a07840"/>
  <rect x="-24" y="82" width="48" height="4" rx="1" fill="#a07840"/>
  <rect x="-20" y="38" width="6" height="44" rx="2" fill="#a07840"/>
  <rect x="-7" y="38" width="6" height="44" rx="2" fill="#a07840"/>
  <rect x="6" y="38" width="6" height="44" rx="2" fill="#a07840"/>
  <rect x="19" y="38" width="6" height="44" rx="2" fill="#a07840"/>
  <line x1="-17" y1="42" x2="-17" y2="78" stroke="#c49a6c" stroke-width="0.8" opacity="0.6"/>
  <line x1="-4" y1="42" x2="-4" y2="78" stroke="#c49a6c" stroke-width="0.8" opacity="0.6"/>
  <line x1="9" y1="42" x2="9" y2="78" stroke="#c49a6c" stroke-width="0.8" opacity="0.6"/>
  <line x1="22" y1="42" x2="22" y2="78" stroke="#c49a6c" stroke-width="0.8" opacity="0.6"/>
  <rect x="-22" y="34" width="10" height="4" rx="1" fill="#c49a6c"/>
  <rect x="-9" y="34" width="10" height="4" rx="1" fill="#c49a6c"/>
  <rect x="4" y="34" width="10" height="4" rx="1" fill="#c49a6c"/>
  <rect x="17" y="34" width="10" height="4" rx="1" fill="#c49a6c"/>
  <rect x="-26" y="28" width="52" height="6" rx="1" fill="#a07840"/>
  <polygon points="0,16 -28,28 28,28" fill="#a07840"/>
  <polygon points="0,21 -18,28 18,28" fill="#c49a6c" opacity="0.5"/>
  <circle cx="0" cy="22" r="3" fill="#fdf6ec"/>
</svg>
