<svg xmlns="http://www.w3.org/2000/svg" viewBox="-56 3 112 112">
  <circle cx="0" cy="55" r="52" fill="#4a7a57"/>
  <circle cx="0" cy="55" r="48" fill="none" stroke="#a5d6a7" stroke-width="1.5" stroke-dasharray="3,3"/>
  <circle cx="0" cy="55" r="44" fill="#e8f2ea"/>
  <circle cx="0" cy="9" r="3" fill="#4a7a57"/><circle cx="27" cy="17" r="3" fill="#4a7a57"/><circle cx="46" cy="35" r="3" fill="#4a7a57"/>
  <circle cx="52" cy="57" r="3" fill="#4a7a57"/><circle cx="44" cy="78" r="3" fill="#4a7a57"/><circle cx="26" cy="94" r="3" fill="#4a7a57"/>
  <circle cx="0" cy="101" r="3" fill="#4a7a57"/><circle cx="-26" cy="94" r="3" fill="#4a7a57"/><circle cx="-44" cy="78" r="3" fill="#4a7a57"/>
  <circle cx="-52" cy="57" r="3" fill="#4a7a57"/><circle cx="-46" cy="35" r="3" fill="#4a7a57"/><circle cx="-27" cy="17" r="3" fill="#4a7a57"/>
  <path d="M-32,76 Q0,68 32,76" fill="none" stroke="#4a7a57" stroke-width="3" stroke-linecap="round"/>
  <path d="M-14,73 Q-18,62 -10,58 Q-8,66 -14,73Z" fill="#4a7a57"/>
  <path d="M12,71 Q16,60 24,62 Q20,70 12,71Z" fill="#4a7a57"/>
  <ellipse cx="2" cy="52" rx="18" ry="11" fill="#4a7a57"/>
  <path d="M-12,50 Q-4,38 12,42 Q4,52 -12,54Z" fill="#6b9e78"/>
  <path d="M-9,51 Q-2,42 9,45 Q2,52 -9,52Z" fill="#a5d6a7" opacity="0.6"/>
  <path d="M-16,52 Q-28,46 -26,36 Q-18,44 -16,52Z" fill="#4a7a57"/>
  <path d="M-16,55 Q-30,54 -30,44 Q-20,50 -16,55Z" fill="#6b9e78"/>
  <path d="M-16,58 Q-28,62 -26,70 Q-18,62 -16,58Z" fill="#4a7a57"/>
  <circle cx="18" cy="43" r="9" fill="#4a7a57"/>
  <circle cx="21" cy="40" r="3.5" fill="#fff"/>
  <circle cx="21" cy="40" r="1.8" fill="#4a7a57"/>
  <circle cx="20" cy="39" r="0.7" fill="#fff"/>
  <path d="M26,41 L34,38 L26,45Z" fill="#6b9e78"/>
  <path d="M14,35 Q12,26 16,22 Q18,28 20,35" fill="#6b9e78"/>
  <circle cx="16" cy="21" r="3" fill="#4a7a57"/>
  <path d="M4,64 L2,74 M4,64 L8,74 M4,64 L12,70" stroke="#4a7a57" stroke-width="2" stroke-linecap="round"/>
</svg>
