<svg xmlns="http://www.w3.org/2000/svg" viewBox="-56 3 112 112">
  <circle cx="0" cy="55" r="52" fill="#4a7a57"/>
  <circle cx="0" cy="55" r="48" fill="none" stroke="#a5d6a7" stroke-width="1.5" stroke-dasharray="3,3"/>
  <circle cx="0" cy="55" r="44" fill="#e8f2ea"/>
  <circle cx="0" cy="9" r="3" fill="#4a7a57"/><circle cx="27" cy="17" r="3" fill="#4a7a57"/><circle cx="46" cy="35" r="3" fill="#4a7a57"/>
  <circle cx="52" cy="57" r="3" fill="#4a7a57"/><circle cx="44" cy="78" r="3" fill="#4a7a57"/><circle cx="26" cy="94" r="3" fill="#4a7a57"/>
  <circle cx="0" cy="101" r="3" fill="#4a7a57"/><circle cx="-26" cy="94" r="3" fill="#4a7a57"/><circle cx="-44" cy="78" r="3" fill="#4a7a57"/>
  <circle cx="-52" cy="57" r="3" fill="#4a7a57"/><circle cx="-46" cy="35" r="3" fill="#4a7a57"/><circle cx="-27" cy="17" r="3" fill="#4a7a57"/>
  <rect x="-5" y="78" width="10" height="16" rx="2" fill="#4a7a57"/>
  <line x1="-2" y1="80" x2="-2" y2="92" stroke="#6b9e78" stroke-width="1"/>
  <line x1="2" y1="80" x2="2" y2="92" stroke="#6b9e78" stroke-width="1"/>
  <path d="M-28,94 Q0,88 28,94" fill="none" stroke="#4a7a57" stroke-width="2"/>
  <polygon points="0,14 -10,34 10,34" fill="#4a7a57"/>
  <polygon points="0,14 -10,34 10,34" fill="#6b9e78" opacity="0.4" transform="scale(0.5,0.5) translate(0,14)"/>
  <polygon points="0,28 -16,50 16,50" fill="#4a7a57"/>
  <polygon points="-4,36 -12,50 4,50" fill="#6b9e78" opacity="0.35"/>
  <polygon points="0,42 -22,66 22,66" fill="#4a7a57"/>
  <polygon points="-4,50 -14,66 6,66" fill="#6b9e78" opacity="0.35"/>
  <polygon points="0,54 -26,78 26,78" fill="#4a7a57"/>
  <polygon points="-4,62 -16,78 8,78" fill="#6b9e78" opacity="0.35"/>
  <polygon points="0,8 -2,14 -8,14 -3,18 -5,24 0,20 5,24 3,18 8,14 2,14" fill="#4a7a57"/>
</svg>
