<svg xmlns="http://www.w3.org/2000/svg" viewBox="-60 -2 120 118">
  <path d="M0,2 L56,56 L0,110 L-56,56Z" fill="#4a5fa0"/>
  <path d="M0,10 L48,56 L0,102 L-48,56Z" fill="none" stroke="#b0bce8" stroke-width="1.5" stroke-dasharray="3,3"/>
  <path d="M0,16 L42,56 L0,96 L-42,56Z" fill="#eef0fa"/>
  <circle cx="0" cy="2" r="3" fill="#4a5fa0"/><circle cx="28" cy="29" r="3" fill="#4a5fa0"/>
  <circle cx="56" cy="56" r="3" fill="#4a5fa0"/><circle cx="28" cy="83" r="3" fill="#4a5fa0"/>
  <circle cx="0" cy="110" r="3" fill="#4a5fa0"/><circle cx="-28" cy="83" r="3" fill="#4a5fa0"/>
  <circle cx="-56" cy="56" r="3" fill="#4a5fa0"/><circle cx="-28" cy="29" r="3" fill="#4a5fa0"/>
  <path d="M-32,30 Q-16,26 0,30 Q16,26 32,30" fill="none" stroke="#4a5fa0" stroke-width="1.5" stroke-linecap="round"/>
  <polygon points="-30,30 -22,30 -26,40" fill="#4a5fa0"/>
  <polygon points="-18,28 -10,28 -14,38" fill="#7a8fc4"/>
  <polygon points="-6,28 2,28 -2,38" fill="#4a5fa0"/>
  <polygon points="6,28 14,28 10,38" fill="#7a8fc4"/>
  <polygon points="18,28 26,28 22,38" fill="#4a5fa0"/>
  <circle cx="-22" cy="60" r="6" fill="#4a5fa0"/>
  <path d="M-22,66 Q-28,76 -26,88 Q-20,80 -18,88 Q-16,80 -22,66Z" fill="#4a5fa0"/>
  <path d="M-22,68 Q-32,70 -34,78 Q-26,74 -22,68Z" fill="#4a5fa0"/>
  <path d="M-22,68 Q-12,70 -10,78 Q-18,74 -22,68Z" fill="#4a5fa0"/>
  <circle cx="0" cy="56" r="7" fill="#4a5fa0"/>
  <ellipse cx="0" cy="49" rx="9" ry="2.5" fill="#4a5fa0"/>
  <rect x="-5" y="42" width="10" height="8" rx="1" fill="#7a8fc4"/>
  <path d="M0,63 Q-8,74 -6,88 Q0,78 6,88 Q8,74 0,63Z" fill="#4a5fa0"/>
  <path d="M0,66 Q-12,68 -14,76 Q-6,72 0,66Z" fill="#4a5fa0"/>
  <path d="M0,66 Q12,68 14,76 Q6,72 0,66Z" fill="#4a5fa0"/>
  <circle cx="22" cy="60" r="6" fill="#4a5fa0"/>
  <path d="M22,66 Q28,76 26,88 Q20,80 18,88 Q16,80 22,66Z" fill="#4a5fa0"/>
  <path d="M22,68 Q32,70 34,78 Q26,74 22,68Z" fill="#4a5fa0"/>
  <path d="M22,68 Q12,70 10,78 Q18,74 22,68Z" fill="#4a5fa0"/>
  <circle cx="-20" cy="59" r="1.2" fill="#eef0fa"/>
  <circle cx="2" cy="55" r="1.2" fill="#eef0fa"/>
  <circle cx="24" cy="59" r="1.2" fill="#eef0fa"/>
  <line x1="-36" y1="90" x2="36" y2="90" stroke="#4a5fa0" stroke-width="2"/>
  <circle cx="-34" cy="48" r="2" fill="#7a8fc4"/>
  <circle cx="30" cy="44" r="2" fill="#b0bce8"/>
  <circle cx="-8" cy="42" r="1.5" fill="#4a5fa0"/>
  <circle cx="38" cy="52" r="1.5" fill="#7a8fc4"/>
</svg>
