<svg xmlns="http://www.w3.org/2000/svg" viewBox="-56 3 112 112">
  <circle cx="0" cy="55" r="52" fill="#4a7a57"/>
  <circle cx="0" cy="55" r="48" fill="none" stroke="#a5d6a7" stroke-width="1.5" stroke-dasharray="3,3"/>
  <circle cx="0" cy="55" r="44" fill="#e8f2ea"/>
  <circle cx="0" cy="9" r="3" fill="#4a7a57"/><circle cx="27" cy="17" r="3" fill="#4a7a57"/><circle cx="46" cy="35" r="3" fill="#4a7a57"/>
  <circle cx="52" cy="57" r="3" fill="#4a7a57"/><circle cx="44" cy="78" r="3" fill="#4a7a57"/><circle cx="26" cy="94" r="3" fill="#4a7a57"/>
  <circle cx="0" cy="101" r="3" fill="#4a7a57"/><circle cx="-26" cy="94" r="3" fill="#4a7a57"/><circle cx="-44" cy="78" r="3" fill="#4a7a57"/>
  <circle cx="-52" cy="57" r="3" fill="#4a7a57"/><circle cx="-46" cy="35" r="3" fill="#4a7a57"/><circle cx="-27" cy="17" r="3" fill="#4a7a57"/>
  <path d="M-8,72 Q-36,68 -38,44 Q-36,24 -18,20 Q-4,18 2,30 Q12,22 10,38 Q6,50 -4,52 Q-16,52 -20,44 Q-24,36 -16,30 Q-8,26 -4,34 Q-2,42 -8,46 Q-14,48 -16,44" fill="none" stroke="#4a7a57" stroke-width="10" stroke-linecap="round" stroke-linejoin="round"/>
  <path d="M-8,72 Q-36,68 -38,44 Q-36,24 -18,20 Q-4,18 2,30 Q12,22 10,38 Q6,50 -4,52 Q-16,52 -20,44 Q-24,36 -16,30 Q-8,26 -4,34 Q-2,42 -8,46 Q-14,48 -16,44" fill="none" stroke="#6b9e78" stroke-width="4" stroke-linecap="round" stroke-linejoin="round"/>
  <ellipse cx="8" cy="68" rx="14" ry="18" fill="#4a7a57"/>
  <ellipse cx="10" cy="72" rx="7" ry="10" fill="#6b9e78" opacity="0.5"/>
  <circle cx="16" cy="46" r="12" fill="#4a7a57"/>
  <path d="M10,36 Q8,26 14,24 Q16,32 14,38Z" fill="#4a7a57"/>
  <path d="M10,36 Q10,28 14,26 Q14,32 13,36Z" fill="#6b9e78" opacity="0.6"/>
  <circle cx="20" cy="44" r="4" fill="#fff"/>
  <circle cx="20" cy="44" r="2.2" fill="#4a7a57"/>
  <circle cx="19" cy="43" r="0.9" fill="#fff"/>
  <ellipse cx="26" cy="50" rx="3" ry="2" fill="#6b9e78"/>
  <line x1="28" y1="49" x2="40" y2="46" stroke="#4a7a57" stroke-width="1" stroke-linecap="round"/>
  <line x1="28" y1="51" x2="40" y2="52" stroke="#4a7a57" stroke-width="1" stroke-linecap="round"/>
  <path d="M14,60 Q18,66 14,72" stroke="#4a7a57" stroke-width="4" fill="none" stroke-linecap="round"/>
  <path d="M22,60 Q20,66 18,72" stroke="#4a7a57" stroke-width="4" fill="none" stroke-linecap="round"/>
  <ellipse cx="16" cy="76" rx="6" ry="4" fill="#4a7a57"/>
  <ellipse cx="16" cy="72" rx="7" ry="3.5" fill="#6b9e78"/>
  <line x1="16" y1="69" x2="16" y2="64" stroke="#4a7a57" stroke-width="1.5" stroke-linecap="round"/>
  <path d="M2,82 Q0,90 2,98 Q6,90 8,82" fill="#4a7a57"/>
  <path d="M14,84 Q14,92 16,98 Q18,92 18,84" fill="#4a7a57"/>
  <path d="M-28,96 Q0,90 28,96" fill="none" stroke="#4a7a57" stroke-width="2"/>
  <ellipse cx="-18" cy="94" rx="4" ry="2.5" fill="#4a7a57"/>
  <ellipse cx="-18" cy="92" rx="4.5" ry="2" fill="#6b9e78"/>
</svg>
